<svg xmlns="http://www.w3.org/2000/svg" width="2800" height="1550" viewBox="0 0 2800 1550">
<rect width="100%" height="100%" fill="#ffffff"/>
<text x="1400" y="58" text-anchor="middle" font-family="Arial, Helvetica, sans-serif" font-size="40" font-weight="700" fill="#111827">SAGIP CORE ENTITY RELATIONSHIP DIAGRAM</text>
<text x="1400" y="98" text-anchor="middle" font-family="Arial, Helvetica, sans-serif" font-size="22" font-weight="400" fill="#4b5563">Crow's Foot notation; core declared relationships from SQLite schema v7 and PostgreSQL migrations 001-003</text>
<rect x="40" y="135" width="1290" height="1325" rx="14" fill="#fcfdff" stroke="#9ca3af" stroke-width="2"/>
<rect x="1370" y="135" width="1390" height="1325" rx="14" fill="#fcfdff" stroke="#9ca3af" stroke-width="2"/>
<text x="685" y="175" text-anchor="middle" font-family="Arial, Helvetica, sans-serif" font-size="26" font-weight="700" fill="#1f4e79">ON-DEVICE SQLITE / SQLCIPHER</text>
<text x="2065" y="175" text-anchor="middle" font-family="Arial, Helvetica, sans-serif" font-size="26" font-weight="700" fill="#1f4e79">BACKEND POSTGRESQL</text>
<rect x="80" y="220" width="360" height="194" fill="#ffffff" stroke="#111827" stroke-width="2"/><rect x="80" y="220" width="360" height="48" fill="#eef5fb" stroke="#111827" stroke-width="2"/><text x="92" y="252" text-anchor="start" font-family="Arial, Helvetica, sans-serif" font-size="22" font-weight="700" fill="#111827">reports</text><text x="92" y="293" text-anchor="start" font-family="Arial, Helvetica, sans-serif" font-size="18" font-weight="700" fill="#1f2937">PK report_id : TEXT</text><text x="92" y="327" text-anchor="start" font-family="Arial, Helvetica, sans-serif" font-size="18" font-weight="400" fill="#1f2937">created_at : INTEGER</text><text x="92" y="361" text-anchor="start" font-family="Arial, Helvetica, sans-serif" font-size="18" font-weight="400" fill="#1f2937">emergency_type : TEXT</text><text x="92" y="395" text-anchor="start" font-family="Arial, Helvetica, sans-serif" font-size="18" font-weight="400" fill="#1f2937">urgency : TEXT</text><rect x="500" y="220" width="390" height="194" fill="#ffffff" stroke="#111827" stroke-width="2"/><rect x="500" y="220" width="390" height="48" fill="#eef5fb" stroke="#111827" stroke-width="2"/><text x="512" y="252" text-anchor="start" font-family="Arial, Helvetica, sans-serif" font-size="22" font-weight="700" fill="#111827">report_revisions</text><text x="512" y="293" text-anchor="start" font-family="Arial, Helvetica, sans-serif" font-size="18" font-weight="700" fill="#1f2937">PK/FK report_id : TEXT</text><text x="512" y="327" text-anchor="start" font-family="Arial, Helvetica, sans-serif" font-size="18" font-weight="700" fill="#1f2937">PK revision : INTEGER</text><text x="512" y="361" text-anchor="start" font-family="Arial, Helvetica, sans-serif" font-size="18" font-weight="400" fill="#1f2937">created_at : INTEGER</text><text x="512" y="395" text-anchor="start" font-family="Arial, Helvetica, sans-serif" font-size="18" font-weight="400" fill="#1f2937">urgency : TEXT</text><rect x="80" y="470" width="360" height="194" fill="#ffffff" stroke="#111827" stroke-width="2"/><rect x="80" y="470" width="360" height="48" fill="#eef5fb" stroke="#111827" stroke-width="2"/><text x="92" y="502" text-anchor="start" font-family="Arial, Helvetica, sans-serif" font-size="22" font-weight="700" fill="#111827">locations</text><text x="92" y="543" text-anchor="start" font-family="Arial, Helvetica, sans-serif" font-size="18" font-weight="700" fill="#1f2937">PK location_id : INTEGER</text><text x="92" y="577" text-anchor="start" font-family="Arial, Helvetica, sans-serif" font-size="18" font-weight="700" fill="#1f2937">FK/UQ report_id : TEXT</text><text x="92" y="611" text-anchor="start" font-family="Arial, Helvetica, sans-serif" font-size="18" font-weight="400" fill="#1f2937">latitude : REAL</text><text x="92" y="645" text-anchor="start" font-family="Arial, Helvetica, sans-serif" font-size="18" font-weight="400" fill="#1f2937">longitude : REAL</text><rect x="500" y="470" width="390" height="194" fill="#ffffff" stroke="#111827" stroke-width="2"/><rect x="500" y="470" width="390" height="48" fill="#eef5fb" stroke="#111827" stroke-width="2"/><text x="512" y="502" text-anchor="start" font-family="Arial, Helvetica, sans-serif" font-size="22" font-weight="700" fill="#111827">outbound_envelopes</text><text x="512" y="543" text-anchor="start" font-family="Arial, Helvetica, sans-serif" font-size="18" font-weight="700" fill="#1f2937">PK message_id : TEXT</text><text x="512" y="577" text-anchor="start" font-family="Arial, Helvetica, sans-serif" font-size="18" font-weight="700" fill="#1f2937">FK report_id + revision</text><text x="512" y="611" text-anchor="start" font-family="Arial, Helvetica, sans-serif" font-size="18" font-weight="400" fill="#1f2937">delivery_state : TEXT</text><text x="512" y="645" text-anchor="start" font-family="Arial, Helvetica, sans-serif" font-size="18" font-weight="400" fill="#1f2937">preparation_state : TEXT</text><rect x="80" y="720" width="360" height="194" fill="#ffffff" stroke="#111827" stroke-width="2"/><rect x="80" y="720" width="360" height="48" fill="#eef5fb" stroke="#111827" stroke-width="2"/><text x="92" y="752" text-anchor="start" font-family="Arial, Helvetica, sans-serif" font-size="22" font-weight="700" fill="#111827">responder_acks</text><text x="92" y="793" text-anchor="start" font-family="Arial, Helvetica, sans-serif" font-size="18" font-weight="700" fill="#1f2937">PK ack_id : TEXT</text><text x="92" y="827" text-anchor="start" font-family="Arial, Helvetica, sans-serif" font-size="18" font-weight="700" fill="#1f2937">FK report_id : TEXT</text><text x="92" y="861" text-anchor="start" font-family="Arial, Helvetica, sans-serif" font-size="18" font-weight="400" fill="#1f2937">status : TEXT</text><text x="92" y="895" text-anchor="start" font-family="Arial, Helvetica, sans-serif" font-size="18" font-weight="400" fill="#1f2937">acknowledged_at : INTEGER</text><rect x="500" y="720" width="390" height="194" fill="#ffffff" stroke="#111827" stroke-width="2"/><rect x="500" y="720" width="390" height="48" fill="#eef5fb" stroke="#111827" stroke-width="2"/><text x="512" y="752" text-anchor="start" font-family="Arial, Helvetica, sans-serif" font-size="22" font-weight="700" fill="#111827">delivery_attempts</text><text x="512" y="793" text-anchor="start" font-family="Arial, Helvetica, sans-serif" font-size="18" font-weight="700" fill="#1f2937">PK attempt_id : TEXT</text><text x="512" y="827" text-anchor="start" font-family="Arial, Helvetica, sans-serif" font-size="18" font-weight="700" fill="#1f2937">FK message_id : TEXT</text><text x="512" y="861" text-anchor="start" font-family="Arial, Helvetica, sans-serif" font-size="18" font-weight="400" fill="#1f2937">transport : TEXT</text><text x="512" y="895" text-anchor="start" font-family="Arial, Helvetica, sans-serif" font-size="18" font-weight="400" fill="#1f2937">outcome : TEXT</text><rect x="80" y="970" width="360" height="194" fill="#ffffff" stroke="#111827" stroke-width="2"/><rect x="80" y="970" width="360" height="48" fill="#eef5fb" stroke="#111827" stroke-width="2"/><text x="92" y="1002" text-anchor="start" font-family="Arial, Helvetica, sans-serif" font-size="22" font-weight="700" fill="#111827">relay_receipts</text><text x="92" y="1043" text-anchor="start" font-family="Arial, Helvetica, sans-serif" font-size="18" font-weight="700" fill="#1f2937">PK receipt_id : TEXT</text><text x="92" y="1077" text-anchor="start" font-family="Arial, Helvetica, sans-serif" font-size="18" font-weight="700" fill="#1f2937">FK message_id : TEXT</text><text x="92" y="1111" text-anchor="start" font-family="Arial, Helvetica, sans-serif" font-size="18" font-weight="400" fill="#1f2937">peer_identifier : TEXT</text><text x="92" y="1145" text-anchor="start" font-family="Arial, Helvetica, sans-serif" font-size="18" font-weight="400" fill="#1f2937">acknowledged_at : INTEGER</text><rect x="500" y="970" width="390" height="194" fill="#ffffff" stroke="#111827" stroke-width="2"/><rect x="500" y="970" width="390" height="48" fill="#eef5fb" stroke="#111827" stroke-width="2"/><text x="512" y="1002" text-anchor="start" font-family="Arial, Helvetica, sans-serif" font-size="22" font-weight="700" fill="#111827">server_receipts</text><text x="512" y="1043" text-anchor="start" font-family="Arial, Helvetica, sans-serif" font-size="18" font-weight="700" fill="#1f2937">PK receipt_id : TEXT</text><text x="512" y="1077" text-anchor="start" font-family="Arial, Helvetica, sans-serif" font-size="18" font-weight="700" fill="#1f2937">FK/UQ message_id : TEXT</text><text x="512" y="1111" text-anchor="start" font-family="Arial, Helvetica, sans-serif" font-size="18" font-weight="400" fill="#1f2937">report_id : TEXT</text><text x="512" y="1145" text-anchor="start" font-family="Arial, Helvetica, sans-serif" font-size="18" font-weight="400" fill="#1f2937">accepted_at : TEXT</text><rect x="80" y="1220" width="360" height="194" fill="#ffffff" stroke="#111827" stroke-width="2"/><rect x="80" y="1220" width="360" height="48" fill="#eef5fb" stroke="#111827" stroke-width="2"/><text x="92" y="1252" text-anchor="start" font-family="Arial, Helvetica, sans-serif" font-size="22" font-weight="700" fill="#111827">inbound_envelopes</text><text x="92" y="1293" text-anchor="start" font-family="Arial, Helvetica, sans-serif" font-size="18" font-weight="700" fill="#1f2937">PK inbound_id : TEXT</text><text x="92" y="1327" text-anchor="start" font-family="Arial, Helvetica, sans-serif" font-size="18" font-weight="700" fill="#1f2937">UQ message_id : TEXT</text><text x="92" y="1361" text-anchor="start" font-family="Arial, Helvetica, sans-serif" font-size="18" font-weight="400" fill="#1f2937">report_id : TEXT?</text><text x="92" y="1395" text-anchor="start" font-family="Arial, Helvetica, sans-serif" font-size="18" font-weight="400" fill="#1f2937">delivery_state : TEXT</text><rect x="500" y="1220" width="390" height="194" fill="#ffffff" stroke="#111827" stroke-width="2"/><rect x="500" y="1220" width="390" height="48" fill="#eef5fb" stroke="#111827" stroke-width="2"/><text x="512" y="1252" text-anchor="start" font-family="Arial, Helvetica, sans-serif" font-size="22" font-weight="700" fill="#111827">relay_responder_acks</text><text x="512" y="1293" text-anchor="start" font-family="Arial, Helvetica, sans-serif" font-size="18" font-weight="700" fill="#1f2937">PK ack_id : TEXT</text><text x="512" y="1327" text-anchor="start" font-family="Arial, Helvetica, sans-serif" font-size="18" font-weight="400" fill="#1f2937">report_id : TEXT</text><text x="512" y="1361" text-anchor="start" font-family="Arial, Helvetica, sans-serif" font-size="18" font-weight="400" fill="#1f2937">status : TEXT</text><text x="512" y="1395" text-anchor="start" font-family="Arial, Helvetica, sans-serif" font-size="18" font-weight="400" fill="#1f2937">acknowledged_at : INTEGER</text><rect x="1420" y="220" width="360" height="194" fill="#ffffff" stroke="#111827" stroke-width="2"/><rect x="1420" y="220" width="360" height="48" fill="#eef7ee" stroke="#111827" stroke-width="2"/><text x="1432" y="252" text-anchor="start" font-family="Arial, Helvetica, sans-serif" font-size="22" font-weight="700" fill="#111827">origin_keys</text><text x="1432" y="293" text-anchor="start" font-family="Arial, Helvetica, sans-serif" font-size="18" font-weight="700" fill="#1f2937">PK origin_key_id : BYTEA</text><text x="1432" y="327" text-anchor="start" font-family="Arial, Helvetica, sans-serif" font-size="18" font-weight="400" fill="#1f2937">public_key_der : BYTEA</text><text x="1432" y="361" text-anchor="start" font-family="Arial, Helvetica, sans-serif" font-size="18" font-weight="400" fill="#1f2937">first_seen_at : TIMESTAMPTZ</text><text x="1432" y="395" text-anchor="start" font-family="Arial, Helvetica, sans-serif" font-size="18" font-weight="400" fill="#1f2937">last_seen_at : TIMESTAMPTZ</text><rect x="1840" y="220" width="370" height="194" fill="#ffffff" stroke="#111827" stroke-width="2"/><rect x="1840" y="220" width="370" height="48" fill="#eef7ee" stroke="#111827" stroke-width="2"/><text x="1852" y="252" text-anchor="start" font-family="Arial, Helvetica, sans-serif" font-size="22" font-weight="700" fill="#111827">incidents</text><text x="1852" y="293" text-anchor="start" font-family="Arial, Helvetica, sans-serif" font-size="18" font-weight="700" fill="#1f2937">PK report_id : UUID</text><text x="1852" y="327" text-anchor="start" font-family="Arial, Helvetica, sans-serif" font-size="18" font-weight="700" fill="#1f2937">FK origin_key_id : BYTEA</text><text x="1852" y="361" text-anchor="start" font-family="Arial, Helvetica, sans-serif" font-size="18" font-weight="400" fill="#1f2937">created_at_ms : BIGINT</text><text x="1852" y="395" text-anchor="start" font-family="Arial, Helvetica, sans-serif" font-size="18" font-weight="400" fill="#1f2937">first_received_at : TIMESTAMPTZ</text><rect x="2260" y="220" width="430" height="194" fill="#ffffff" stroke="#111827" stroke-width="2"/><rect x="2260" y="220" width="430" height="48" fill="#eef7ee" stroke="#111827" stroke-width="2"/><text x="2272" y="252" text-anchor="start" font-family="Arial, Helvetica, sans-serif" font-size="22" font-weight="700" fill="#111827">incident_revisions</text><text x="2272" y="293" text-anchor="start" font-family="Arial, Helvetica, sans-serif" font-size="18" font-weight="700" fill="#1f2937">PK/FK report_id : UUID</text><text x="2272" y="327" text-anchor="start" font-family="Arial, Helvetica, sans-serif" font-size="18" font-weight="700" fill="#1f2937">PK revision : INTEGER</text><text x="2272" y="361" text-anchor="start" font-family="Arial, Helvetica, sans-serif" font-size="18" font-weight="400" fill="#1f2937">emergency_type : SMALLINT</text><text x="2272" y="395" text-anchor="start" font-family="Arial, Helvetica, sans-serif" font-size="18" font-weight="400" fill="#1f2937">payload_digest : BYTEA</text><rect x="1840" y="520" width="430" height="194" fill="#ffffff" stroke="#111827" stroke-width="2"/><rect x="1840" y="520" width="430" height="48" fill="#eef7ee" stroke="#111827" stroke-width="2"/><text x="1852" y="552" text-anchor="start" font-family="Arial, Helvetica, sans-serif" font-size="22" font-weight="700" fill="#111827">accepted_messages</text><text x="1852" y="593" text-anchor="start" font-family="Arial, Helvetica, sans-serif" font-size="18" font-weight="700" fill="#1f2937">PK message_id : UUID</text><text x="1852" y="627" text-anchor="start" font-family="Arial, Helvetica, sans-serif" font-size="18" font-weight="700" fill="#1f2937">FK/UQ report_id + revision</text><text x="1852" y="661" text-anchor="start" font-family="Arial, Helvetica, sans-serif" font-size="18" font-weight="700" fill="#1f2937">FK origin_key_id : BYTEA</text><text x="1852" y="695" text-anchor="start" font-family="Arial, Helvetica, sans-serif" font-size="18" font-weight="400" fill="#1f2937">accepted_at : TIMESTAMPTZ</text><rect x="2260" y="800" width="430" height="194" fill="#ffffff" stroke="#111827" stroke-width="2"/><rect x="2260" y="800" width="430" height="48" fill="#eef7ee" stroke="#111827" stroke-width="2"/><text x="2272" y="832" text-anchor="start" font-family="Arial, Helvetica, sans-serif" font-size="22" font-weight="700" fill="#111827">server_receipts</text><text x="2272" y="873" text-anchor="start" font-family="Arial, Helvetica, sans-serif" font-size="18" font-weight="700" fill="#1f2937">PK/FK message_id : UUID</text><text x="2272" y="907" text-anchor="start" font-family="Arial, Helvetica, sans-serif" font-size="18" font-weight="700" fill="#1f2937">UQ receipt_id : UUID</text><text x="2272" y="941" text-anchor="start" font-family="Arial, Helvetica, sans-serif" font-size="18" font-weight="400" fill="#1f2937">state : TEXT</text><text x="2272" y="975" text-anchor="start" font-family="Arial, Helvetica, sans-serif" font-size="18" font-weight="400" fill="#1f2937">accepted_at : TIMESTAMPTZ</text><rect x="1420" y="930" width="360" height="194" fill="#ffffff" stroke="#111827" stroke-width="2"/><rect x="1420" y="930" width="360" height="48" fill="#eef7ee" stroke="#111827" stroke-width="2"/><text x="1432" y="962" text-anchor="start" font-family="Arial, Helvetica, sans-serif" font-size="22" font-weight="700" fill="#111827">responder_identities</text><text x="1432" y="1003" text-anchor="start" font-family="Arial, Helvetica, sans-serif" font-size="18" font-weight="700" fill="#1f2937">PK responder_id : UUID</text><text x="1432" y="1037" text-anchor="start" font-family="Arial, Helvetica, sans-serif" font-size="18" font-weight="700" fill="#1f2937">UQ callsign : VARCHAR(64)</text><text x="1432" y="1071" text-anchor="start" font-family="Arial, Helvetica, sans-serif" font-size="18" font-weight="400" fill="#1f2937">role : VARCHAR(32)</text><text x="1432" y="1105" text-anchor="start" font-family="Arial, Helvetica, sans-serif" font-size="18" font-weight="700" fill="#1f2937">UQ api_key_hash : VARCHAR(64)</text><rect x="1840" y="1120" width="430" height="194" fill="#ffffff" stroke="#111827" stroke-width="2"/><rect x="1840" y="1120" width="430" height="48" fill="#eef7ee" stroke="#111827" stroke-width="2"/><text x="1852" y="1152" text-anchor="start" font-family="Arial, Helvetica, sans-serif" font-size="22" font-weight="700" fill="#111827">responder_acknowledgements</text><text x="1852" y="1193" text-anchor="start" font-family="Arial, Helvetica, sans-serif" font-size="18" font-weight="700" fill="#1f2937">PK ack_id : UUID</text><text x="1852" y="1227" text-anchor="start" font-family="Arial, Helvetica, sans-serif" font-size="18" font-weight="700" fill="#1f2937">FK report_id : UUID</text><text x="1852" y="1261" text-anchor="start" font-family="Arial, Helvetica, sans-serif" font-size="18" font-weight="700" fill="#1f2937">FK responder_id : UUID</text><text x="1852" y="1295" text-anchor="start" font-family="Arial, Helvetica, sans-serif" font-size="18" font-weight="400" fill="#1f2937">status : VARCHAR(32)</text><path d="M440 292 L500 292" fill="none" stroke="#374151" stroke-width="2.3"/><line x1="452" y1="280" x2="452" y2="304" stroke="#111827" stroke-width="2"/><circle cx="474" cy="292" r="8" fill="#fff" stroke="#111827" stroke-width="2"/><line x1="492" y1="292" x2="472" y2="276" stroke="#111827" stroke-width="2"/><line x1="492" y1="292" x2="472" y2="292" stroke="#111827" stroke-width="2"/><line x1="492" y1="292" x2="472" y2="308" stroke="#111827" stroke-width="2"/><text x="445" y="278" text-anchor="start" font-family="Arial, Helvetica, sans-serif" font-size="16" font-weight="400" fill="#4b5563">1 to 0..*</text><path d="M260 398 L260 470" fill="none" stroke="#374151" stroke-width="2.3"/><line x1="248" y1="410" x2="272" y2="410" stroke="#111827" stroke-width="2"/><line x1="248" y1="458" x2="272" y2="458" stroke="#111827" stroke-width="2"/><circle cx="260" cy="444" r="8" fill="#fff" stroke="#111827" stroke-width="2"/><text x="275" y="447" text-anchor="start" font-family="Arial, Helvetica, sans-serif" font-size="16" font-weight="400" fill="#4b5563">1 to 0..1</text><path d="M695 398 L695 470" fill="none" stroke="#374151" stroke-width="2.3"/><line x1="683" y1="410" x2="707" y2="410" stroke="#111827" stroke-width="2"/><line x1="683" y1="458" x2="707" y2="458" stroke="#111827" stroke-width="2"/><circle cx="695" cy="444" r="8" fill="#fff" stroke="#111827" stroke-width="2"/><text x="710" y="447" text-anchor="start" font-family="Arial, Helvetica, sans-serif" font-size="16" font-weight="400" fill="#4b5563">1 to 0..1</text><path d="M260 398 L55 398 L55 792 L80 792" fill="none" stroke="#374151" stroke-width="2.3"/><line x1="248" y1="410" x2="272" y2="410" stroke="#111827" stroke-width="2"/><circle cx="54" cy="792" r="8" fill="#fff" stroke="#111827" stroke-width="2"/><line x1="72" y1="792" x2="52" y2="776" stroke="#111827" stroke-width="2"/><line x1="72" y1="792" x2="52" y2="792" stroke="#111827" stroke-width="2"/><line x1="72" y1="792" x2="52" y2="808" stroke="#111827" stroke-width="2"/><text x="70" y="620" text-anchor="start" font-family="Arial, Helvetica, sans-serif" font-size="16" font-weight="400" fill="#4b5563">1 to 0..*</text><path d="M695 648 L695 720" fill="none" stroke="#374151" stroke-width="2.3"/><line x1="683" y1="660" x2="707" y2="660" stroke="#111827" stroke-width="2"/><circle cx="695" cy="694" r="8" fill="#fff" stroke="#111827" stroke-width="2"/><line x1="695" y1="712" x2="679" y2="692" stroke="#111827" stroke-width="2"/><line x1="695" y1="712" x2="695" y2="692" stroke="#111827" stroke-width="2"/><line x1="695" y1="712" x2="711" y2="692" stroke="#111827" stroke-width="2"/><text x="710" y="697" text-anchor="start" font-family="Arial, Helvetica, sans-serif" font-size="16" font-weight="400" fill="#4b5563">1 to 0..*</text><path d="M695 648 L935 648 L935 1042 L500 1042" fill="none" stroke="#374151" stroke-width="2.3"/><line x1="683" y1="660" x2="707" y2="660" stroke="#111827" stroke-width="2"/><circle cx="526" cy="1042" r="8" fill="#fff" stroke="#111827" stroke-width="2"/><line x1="508" y1="1042" x2="528" y2="1026" stroke="#111827" stroke-width="2"/><line x1="508" y1="1042" x2="528" y2="1042" stroke="#111827" stroke-width="2"/><line x1="508" y1="1042" x2="528" y2="1058" stroke="#111827" stroke-width="2"/><text x="820" y="1022" text-anchor="start" font-family="Arial, Helvetica, sans-serif" font-size="16" font-weight="400" fill="#4b5563">1 to 0..*</text><path d="M695 648 L960 648 L960 1042 L890 1042" fill="none" stroke="#374151" stroke-width="2.3"/><line x1="683" y1="660" x2="707" y2="660" stroke="#111827" stroke-width="2"/><line x1="878" y1="1030" x2="878" y2="1054" stroke="#111827" stroke-width="2"/><circle cx="864" cy="1042" r="8" fill="#fff" stroke="#111827" stroke-width="2"/><text x="905" y="1019" text-anchor="start" font-family="Arial, Helvetica, sans-serif" font-size="16" font-weight="400" fill="#4b5563">1 to 0..1</text><path d="M1780 292 L1840 292" fill="none" stroke="#374151" stroke-width="2.3"/><line x1="1792" y1="280" x2="1792" y2="304" stroke="#111827" stroke-width="2"/><circle cx="1814" cy="292" r="8" fill="#fff" stroke="#111827" stroke-width="2"/><line x1="1832" y1="292" x2="1812" y2="276" stroke="#111827" stroke-width="2"/><line x1="1832" y1="292" x2="1812" y2="292" stroke="#111827" stroke-width="2"/><line x1="1832" y1="292" x2="1812" y2="308" stroke="#111827" stroke-width="2"/><text x="1785" y="278" text-anchor="start" font-family="Arial, Helvetica, sans-serif" font-size="16" font-weight="400" fill="#4b5563">1 to 0..*</text><path d="M2025 398 L2025 455 L2475 455 L2475 398" fill="none" stroke="#374151" stroke-width="2.3"/><line x1="2013" y1="410" x2="2037" y2="410" stroke="#111827" stroke-width="2"/><circle cx="2475" cy="424" r="8" fill="#fff" stroke="#111827" stroke-width="2"/><line x1="2475" y1="406" x2="2459" y2="426" stroke="#111827" stroke-width="2"/><line x1="2475" y1="406" x2="2475" y2="426" stroke="#111827" stroke-width="2"/><line x1="2475" y1="406" x2="2491" y2="426" stroke="#111827" stroke-width="2"/><text x="2240" y="441" text-anchor="start" font-family="Arial, Helvetica, sans-serif" font-size="16" font-weight="400" fill="#4b5563">1 to 0..*</text><path d="M1600 398 L1600 615 L1840 615" fill="none" stroke="#374151" stroke-width="2.3"/><line x1="1588" y1="410" x2="1612" y2="410" stroke="#111827" stroke-width="2"/><circle cx="1814" cy="615" r="8" fill="#fff" stroke="#111827" stroke-width="2"/><line x1="1832" y1="615" x2="1812" y2="599" stroke="#111827" stroke-width="2"/><line x1="1832" y1="615" x2="1812" y2="615" stroke="#111827" stroke-width="2"/><line x1="1832" y1="615" x2="1812" y2="631" stroke="#111827" stroke-width="2"/><text x="1630" y="594" text-anchor="start" font-family="Arial, Helvetica, sans-serif" font-size="16" font-weight="400" fill="#4b5563">1 to 0..*</text><path d="M2475 398 L2475 610 L2270 610" fill="none" stroke="#374151" stroke-width="2.3"/><line x1="2463" y1="410" x2="2487" y2="410" stroke="#111827" stroke-width="2"/><line x1="2282" y1="598" x2="2282" y2="622" stroke="#111827" stroke-width="2"/><circle cx="2296" cy="610" r="8" fill="#fff" stroke="#111827" stroke-width="2"/><text x="2290" y="594" text-anchor="start" font-family="Arial, Helvetica, sans-serif" font-size="16" font-weight="400" fill="#4b5563">1 to 0..1</text><path d="M2270 610 L2475 610 L2475 800" fill="none" stroke="#374151" stroke-width="2.3"/><line x1="2282" y1="598" x2="2282" y2="622" stroke="#111827" stroke-width="2"/><line x1="2463" y1="788" x2="2487" y2="788" stroke="#111827" stroke-width="2"/><circle cx="2475" cy="774" r="8" fill="#fff" stroke="#111827" stroke-width="2"/><text x="2488" y="735" text-anchor="start" font-family="Arial, Helvetica, sans-serif" font-size="16" font-weight="400" fill="#4b5563">1 to 0..1</text><path d="M2025 398 L2025 1110 L2055 1110 L2055 1120" fill="none" stroke="#374151" stroke-width="2.3"/><line x1="2013" y1="410" x2="2037" y2="410" stroke="#111827" stroke-width="2"/><circle cx="2055" cy="1094" r="8" fill="#fff" stroke="#111827" stroke-width="2"/><line x1="2055" y1="1112" x2="2039" y2="1092" stroke="#111827" stroke-width="2"/><line x1="2055" y1="1112" x2="2055" y2="1092" stroke="#111827" stroke-width="2"/><line x1="2055" y1="1112" x2="2071" y2="1092" stroke="#111827" stroke-width="2"/><text x="2070" y="1095" text-anchor="start" font-family="Arial, Helvetica, sans-serif" font-size="16" font-weight="400" fill="#4b5563">1 to 0..*</text><path d="M1780 1002 L1805 1002 L1805 1192 L1840 1192" fill="none" stroke="#374151" stroke-width="2.3"/><line x1="1792" y1="990" x2="1792" y2="1014" stroke="#111827" stroke-width="2"/><circle cx="1814" cy="1192" r="8" fill="#fff" stroke="#111827" stroke-width="2"/><line x1="1832" y1="1192" x2="1812" y2="1176" stroke="#111827" stroke-width="2"/><line x1="1832" y1="1192" x2="1812" y2="1192" stroke="#111827" stroke-width="2"/><line x1="1832" y1="1192" x2="1812" y2="1208" stroke="#111827" stroke-width="2"/><text x="1810" y="1080" text-anchor="start" font-family="Arial, Helvetica, sans-serif" font-size="16" font-weight="400" fill="#4b5563">1 to 0..*</text>
<g transform="translate(1450,1360)">
 <text x="0" y="0" text-anchor="start" font-family="Arial, Helvetica, sans-serif" font-size="18" font-weight="700" fill="#111827">Cardinality key</text>
 <line x1="0" y1="35" x2="80" y2="35" stroke="#374151" stroke-width="2"/>
 <line x1="12" y1="23" x2="12" y2="47" stroke="#111827" stroke-width="2"/>
 <line x1="68" y1="23" x2="68" y2="47" stroke="#111827" stroke-width="2"/><circle cx="54" cy="35" r="8" fill="#fff" stroke="#111827" stroke-width="2"/>
 <text x="95" y="42" text-anchor="start" font-family="Arial, Helvetica, sans-serif" font-size="17" font-weight="400" fill="#111827">0..1</text>
 <line x1="210" y1="35" x2="290" y2="35" stroke="#374151" stroke-width="2"/>
 <line x1="222" y1="23" x2="222" y2="47" stroke="#111827" stroke-width="2"/>
 <circle cx="264" cy="35" r="8" fill="#fff" stroke="#111827" stroke-width="2"/><line x1="282" y1="35" x2="262" y2="19" stroke="#111827" stroke-width="2"/><line x1="282" y1="35" x2="262" y2="35" stroke="#111827" stroke-width="2"/><line x1="282" y1="35" x2="262" y2="51" stroke="#111827" stroke-width="2"/>
 <text x="305" y="42" text-anchor="start" font-family="Arial, Helvetica, sans-serif" font-size="17" font-weight="400" fill="#111827">0..*</text>
</g>
<text x="685" y="1440" text-anchor="middle" font-family="Arial, Helvetica, sans-serif" font-size="17" font-weight="400" fill="#4b5563">Operational tables delivery_events and seen_messages are omitted for readability. relay_responder_acks has no declared FK.</text>
<text x="2065" y="1440" text-anchor="middle" font-family="Arial, Helvetica, sans-serif" font-size="17" font-weight="400" fill="#4b5563">request_rate_limit_windows is omitted because it is operational infrastructure without incident FKs.</text>
</svg>